<svg width="357" height="54" viewBox="0 0 357 54" fill="none" xmlns="http://www.w3.org/2000/svg">
<path d="M35.6758 43.9453C33.5078 44.7656 31.0469 45.1758 28.293 45.1758C19.2695 45.1758 14.7578 40.8105 14.7578 32.0801C14.7578 23.8184 19.2695 19.6875 28.293 19.6875C31.0469 19.6875 33.5078 20.0977 35.6758 20.918V25.1367C33.5078 24.1992 31.1641 23.7305 28.6445 23.7305C22.6094 23.7305 19.5918 26.5137 19.5918 32.0801C19.5918 38.1152 22.6094 41.1328 28.6445 41.1328C31.1641 41.1328 33.5078 40.6641 35.6758 39.7266V43.9453ZM44.7285 19.8633V45H40.0703V19.8633H44.7285ZM55.5039 45C52.3633 39.0352 50.3887 35.6309 49.5801 34.7871C48.7832 33.9434 47.9277 33.5215 47.0137 33.5215V30.1289C48.6543 30.1289 50.1953 28.418 51.6367 24.9961C53.0898 21.5742 55.4453 19.8633 58.7031 19.8633H60.584V23.5547H59.1953C57.9297 23.5547 56.7637 24.7969 55.6973 27.2812C54.6426 29.7539 53.166 31.2188 51.2676 31.6758C52.1816 31.9336 53.1367 32.5488 54.1328 33.5215C55.1406 34.4941 57.5547 38.3203 61.375 45H55.5039ZM67.0527 45H62.2715L72.9414 19.8633H77.9512L88.8496 45H83.8398L80.9746 38.1445H72.625L74.2246 34.1016H79.2871L75.332 24.6621L67.0527 45ZM91.9258 45V19.8633H96.584V30.0586H109.504V19.8633H114.162V45H109.504V34.1016H96.584V45H91.9258ZM136.662 19.8633V23.8711H124.076V30.1992H136.064V34.3652H124.023V40.957H136.908V45H119.453V19.8633H136.662ZM141.215 45V19.8633H152.465C157.598 19.8633 160.164 22.2246 160.164 26.9473C160.164 32.0684 156.654 35.168 149.635 36.2461L148.967 32.0977C153.186 31.3359 155.295 29.666 155.295 27.0879C155.295 25.002 154.252 23.959 152.166 23.959H145.873V45H141.215ZM170.289 20.7422C172.633 20.0391 175.094 19.6875 177.672 19.6875C183.941 19.6875 187.076 21.9727 187.076 26.543C187.076 29.3086 185.975 31.2129 183.771 32.2559C185.975 33.252 187.076 35.1562 187.076 37.9688C187.076 42.7734 183.941 45.1758 177.672 45.1758C175.094 45.1758 172.633 44.8242 170.289 44.1211V39.9023C172.633 40.7227 175.094 41.1328 177.672 41.1328C180.836 41.1328 182.418 40.0781 182.418 37.9688C182.418 35.5078 181.293 34.2773 179.043 34.2773H172.926V30.2344H178.99C181.275 30.2344 182.418 29.0039 182.418 26.543C182.418 24.668 180.836 23.7305 177.672 23.7305C175.094 23.7305 172.633 24.1406 170.289 24.9609V20.7422ZM198.309 40.957H210.191V23.9062H203.336C203.336 33.2695 201.66 38.9531 198.309 40.957ZM188.148 51.6797V40.957H191.383C196.246 40.957 198.678 35.2734 198.678 23.9062V19.8633H214.85V40.957H218.102V51.6797H213.443V45H192.789V51.6797H188.148ZM224.658 45H219.877L230.547 19.8633H235.557L246.455 45H241.445L238.58 38.1445H230.23L231.83 34.1016H236.893L232.938 24.6621L224.658 45ZM249.531 45V19.8633H254.189V30.0586H267.109V19.8633H271.768V45H267.109V34.1016H254.189V45H249.531ZM293.406 45V26.9297L281.541 45H277.059V19.8633H281.541V38.1621L293.406 19.8633H297.889V45H293.406ZM308.453 13.6406H311.529C311.529 15.2812 312.232 16.1016 313.639 16.1016C315.045 16.1016 315.748 15.2812 315.748 13.6406H318.824C318.824 17.0391 317.096 18.7383 313.639 18.7383C310.182 18.7383 308.453 17.0391 308.453 13.6406ZM319.527 45V27.2812L307.838 45H303.18V19.8633H307.662V38.1621L319.352 19.8633H324.01V45H319.527Z" fill="black"/>
<path d="M37.7103 14.6792L21.8893 2.99999" stroke="black" stroke-width="5"/>
<path d="M24.3095 3.00001L2.23912 22.1429" stroke="black" stroke-width="5"/>
<path d="M3.30951 20L3.30975 53.5" stroke="black" stroke-width="5"/>
<path d="M39.3098 51L4.80975 51" stroke="black" stroke-width="5"/>
</svg>
